<svg width="96" height="129" viewBox="0 0 96 129" fill="none" xmlns="http://www.w3.org/2000/svg">
<path d="M83.2949 55.66C83.2949 50.9664 77.4171 46.5183 68.4054 43.76C70.485 34.575 69.5608 27.2675 65.4882 24.9279C64.5495 24.3791 63.4519 24.1192 62.2532 24.1192V27.3397C62.9175 27.3397 63.4519 27.4697 63.8996 27.7152C65.8637 28.8416 66.7157 33.1308 66.0514 38.6476C65.8926 40.0051 65.6326 41.4348 65.3149 42.8935C62.4843 42.2003 59.3938 41.6659 56.1444 41.3193C54.1947 38.6476 52.1729 36.2214 50.1366 34.0984C54.8446 29.7226 59.2638 27.3252 62.2677 27.3252V24.1047C58.2962 24.1047 53.0972 26.9353 47.8404 31.8455C42.5836 26.9642 37.3845 24.1625 33.413 24.1625V27.383C36.4025 27.383 40.8361 29.7659 45.5441 34.1129C43.5223 36.2358 41.5004 38.6476 39.5797 41.3193C36.3158 41.6659 33.2253 42.2003 30.3947 42.9079C30.0626 41.4637 29.817 40.0629 29.6437 38.7198C28.965 33.203 29.8026 28.9138 31.7522 27.7729C32.1855 27.513 32.7487 27.3975 33.413 27.3975V24.1769C32.1999 24.1769 31.1024 24.4369 30.1492 24.9857C26.0911 27.3252 25.1812 34.6183 27.2753 43.7744C18.2925 46.5472 12.4436 50.9809 12.4436 55.66C12.4436 60.3536 18.3214 64.8016 27.3331 67.56C25.2534 76.7449 26.1777 84.0525 30.2503 86.392C31.189 86.9408 32.2866 87.2008 33.4997 87.2008C37.4712 87.2008 42.6702 84.3702 47.927 79.46C53.1838 84.3413 58.3828 87.143 62.3543 87.143C63.5674 87.143 64.665 86.8831 65.6182 86.3343C69.6763 83.9947 70.5861 76.7016 68.4921 67.5455C77.446 64.7872 83.2949 60.3391 83.2949 55.66ZM64.4917 46.0273C63.9574 47.8903 63.293 49.8111 62.5421 51.7318C61.95 50.5765 61.329 49.4211 60.6502 48.2658C59.9859 47.1105 59.2782 45.984 58.5706 44.8864C60.6213 45.1897 62.5998 45.5652 64.4917 46.0273ZM57.8774 61.4078C56.7509 63.3574 55.5956 65.206 54.3969 66.9246C52.2451 67.1123 50.0644 67.2134 47.8692 67.2134C45.6885 67.2134 43.5078 67.1123 41.3704 66.939C40.1718 65.2204 39.002 63.3863 37.8755 61.4511C36.778 59.5593 35.7815 57.6385 34.8717 55.7033C35.767 53.7681 36.778 51.8329 37.8611 49.941C38.9876 47.9914 40.1429 46.1429 41.3416 44.4243C43.4934 44.2365 45.6741 44.1355 47.8692 44.1355C50.0499 44.1355 52.2306 44.2365 54.368 44.4099C55.5667 46.1284 56.7365 47.9625 57.8629 49.8977C58.9605 51.7896 59.957 53.7103 60.8668 55.6455C59.957 57.5807 58.9605 59.5159 57.8774 61.4078ZM62.5421 59.5304C63.3219 61.4656 63.9862 63.4008 64.535 65.2782C62.6432 65.7403 60.6502 66.1303 58.585 66.4335C59.2927 65.3215 60.0003 64.1806 60.6646 63.0108C61.329 61.8555 61.95 60.6857 62.5421 59.5304ZM47.8981 74.9397C46.555 73.5533 45.212 72.0081 43.8833 70.3184C45.1831 70.3761 46.5117 70.4195 47.8548 70.4195C49.2123 70.4195 50.5554 70.3906 51.8696 70.3184C50.5699 72.0081 49.2268 73.5533 47.8981 74.9397ZM37.1535 66.4335C35.1027 66.1303 33.1242 65.7548 31.2323 65.2926C31.7667 63.4296 32.431 61.5089 33.182 59.5881C33.7741 60.7435 34.3951 61.8988 35.0738 63.0542C35.7526 64.2095 36.4458 65.336 37.1535 66.4335ZM47.8259 36.3802C49.169 37.7666 50.5121 39.3119 51.8407 41.0016C50.541 40.9438 49.2123 40.9005 47.8692 40.9005C46.5117 40.9005 45.1686 40.9294 43.8544 41.0016C45.1542 39.3119 46.4973 37.7666 47.8259 36.3802ZM37.139 44.8864C36.4314 45.9984 35.7237 47.1393 35.0594 48.3091C34.3951 49.4645 33.7741 50.6198 33.182 51.7751C32.4021 49.84 31.7378 47.9048 31.189 46.0273C33.0809 45.5796 35.0738 45.1897 37.139 44.8864ZM24.0692 62.9675C18.9568 60.7868 15.6497 57.9273 15.6497 55.66C15.6497 53.3926 18.9568 50.5187 24.0692 48.3524C25.3112 47.8181 26.6687 47.3415 28.0696 46.8938C28.8928 49.7244 29.9759 52.6705 31.319 55.6889C29.9903 58.6928 28.9217 61.6244 28.1129 64.4406C26.6832 63.9929 25.3257 63.5019 24.0692 62.9675ZM31.8389 83.6048C29.8748 82.4783 29.0227 78.1891 29.6871 72.6724C29.8459 71.3148 30.1059 69.8851 30.4236 68.4265C33.2542 69.1197 36.3447 69.654 39.5941 70.0006C41.5438 72.6724 43.5656 75.0986 45.6019 77.2215C40.8939 81.5974 36.4747 83.9947 33.4708 83.9947C32.8209 83.9803 32.2721 83.8503 31.8389 83.6048ZM66.0947 72.6002C66.7735 78.1169 65.9359 82.4061 63.9862 83.547C63.553 83.807 62.9898 83.9225 62.3254 83.9225C59.336 83.9225 54.9024 81.5396 50.1944 77.1926C52.2162 75.0697 54.2381 72.6579 56.1588 69.9862C59.4227 69.6396 62.5132 69.1053 65.3438 68.3976C65.6759 69.8562 65.9359 71.2571 66.0947 72.6002ZM71.6548 62.9675C70.4128 63.5019 69.0553 63.9784 67.6544 64.4261C66.8313 61.5955 65.7481 58.6494 64.4051 55.6311C65.7337 52.6272 66.8024 49.6955 67.6111 46.8794C69.0409 47.3271 70.3984 47.8181 71.6693 48.3524C76.7816 50.5332 80.0888 53.3926 80.0888 55.66C80.0744 57.9273 76.7672 60.8012 71.6548 62.9675Z" fill="#61DAFB"/>
<path d="M47.8548 62.2598C51.4998 62.2598 54.4547 59.305 54.4547 55.6599C54.4547 52.0149 51.4998 49.0601 47.8548 49.0601C44.2097 49.0601 41.2549 52.0149 41.2549 55.6599C41.2549 59.305 44.2097 62.2598 47.8548 62.2598Z" fill="#61DAFB"/>
<path d="M0.0682373 16.8726C0.0682373 12.6468 1.74696 8.59397 4.7351 5.60583C7.72324 2.61769 11.776 0.938965 16.0019 0.938965L79.7366 0.938965C83.9624 0.938965 88.0152 2.61769 91.0034 5.60583C93.9915 8.59397 95.6702 12.6468 95.6702 16.8726V124.425C95.6699 125.145 95.4741 125.852 95.1037 126.47C94.7333 127.088 94.2022 127.595 93.567 127.935C92.9318 128.275 92.2162 128.436 91.4965 128.402C90.7768 128.367 90.0799 128.138 89.48 127.739L47.8692 105.312L6.25847 127.739C5.65861 128.138 4.96171 128.367 4.24199 128.402C3.52228 128.436 2.8067 128.275 2.17148 127.935C1.53625 127.595 1.00517 127.088 0.634791 126.47C0.264413 125.852 0.0686095 125.145 0.0682373 124.425V16.8726ZM16.0019 8.9058C13.889 8.9058 11.8626 9.74516 10.3685 11.2392C8.87443 12.7333 8.03507 14.7597 8.03507 16.8726V116.984L45.6624 97.2102C46.3162 96.7751 47.084 96.543 47.8692 96.543C48.6545 96.543 49.4223 96.7751 50.0761 97.2102L87.7034 116.984V16.8726C87.7034 14.7597 86.864 12.7333 85.37 11.2392C83.8759 9.74516 81.8495 8.9058 79.7366 8.9058H16.0019Z" fill="#61DAFB"/>
</svg>
